<?xml version="1.0" encoding="utf-8"?>
<!-- Generator: Adobe Illustrator 22.0.1, SVG Export Plug-In . SVG Version: 6.00 Build 0)  -->
<svg version="1.1" id="Layer_1" xmlns="http://www.w3.org/2000/svg" xmlns:xlink="http://www.w3.org/1999/xlink" x="0px" y="0px"
	 viewBox="0 0 661 353.6" style="enable-background:new 0 0 661 353.6;" xml:space="preserve">
<style type="text/css">
	.st0{fill:#ffffff;}
</style>
<title>Shaastra Tall Black</title>
<g>
	<path class="st0" d="M52.2,276.9h31.1c2,0,3.9,1.1,5,3c0.8,1.3,1.3,2.8,1.3,4.4v0.3l-0.2,0.2H55.8v6.4h26.7
		c3.3-0.2,6.3,2.2,6.9,5.3l0.3,1.9v6.4c0,2.5-1.3,4.9-3.3,6.3c-0.9,0.5-2,0.9-3.1,0.9l0,0H52.2c-0.6-0.2-1.1-0.3-1.7-0.5
		c-1.6-0.5-3-1.7-3.8-3.1c-0.6-1.1-0.9-2.2-0.9-3.5v-0.2h33.9v-6.3H53c-3.3,0.2-6.3-2.2-6.9-5.3l-0.3-1.9V284c0-2.7,1.3-5,3.5-6.4
		C50.1,277.1,51.1,276.9,52.2,276.9z"/>
	<path class="st0" d="M91.9,277.1h9.6l0.2,0.2V312l-0.2,0.2h-9.6l-0.2-0.2v-34.7L91.9,277.1z M125.8,277.1h9.6l0.2,0.2V312l-0.2,0.2
		h-9.6l-0.2-0.2v-13h-20.8l-0.2-0.2v-7.4l0.2-0.2h20.9v-13.8L125.8,277.1z"/>
	<path class="st0" d="M169.8,276.6c0.2,0.2,2.7,4.7,7.5,13.8l11.8,21.3h-0.2h-12.1c-1.3-1.7-2.2-3.6-3.1-5.5l-0.5-0.5h-11.5h-1.2
		h-1.1h-5.8v-0.2l4.2-7.4h4.9h1.3h1.4h3.8l0,0c-4.2-8-6.6-12.1-6.7-12.6l-14.1,26.1h-12.2l-0.2-0.2l19.3-35l0,0h14.5V276.6z"/>
	<path class="st0" d="M224.1,276.6c0.2,0.2,2.7,4.7,7.5,13.8l11.8,21.3h-0.2h-12.1c-1.3-1.7-2.2-3.6-3.1-5.5l-0.5-0.5H216h-1.3h-1.1
		h-5.7v-0.2l4.2-7.4h4.9h1.3h1.4h3.8l0,0c-4.2-8-6.6-12.1-6.7-12.6l-14.1,26.1h-11.9l-0.2-0.2l19.3-35l0,0h14.2L224.1,276.6
		L224.1,276.6z"/>
	<path class="st0" d="M248.4,276.9h31.1c2,0,3.9,1.1,5,3c0.8,1.3,1.3,2.8,1.3,4.4v0.3l-0.2,0.2H252v6.4h26.7
		c3.3-0.2,6.3,2.2,6.9,5.3l0.3,1.9v6.4c0,2.5-1.3,4.9-3.3,6.3c-0.9,0.5-2,0.9-3.1,0.9l0,0h-31c-0.6-0.2-1.1-0.3-1.7-0.5
		c-1.6-0.5-3-1.7-3.8-3.1c-0.6-1.1-0.9-2.2-0.9-3.5v-0.2h33.7v-6.3h-26.7c-3.3,0.2-6.3-2.2-6.9-5.3l-0.3-1.9V284
		c0-2.7,1.3-5,3.5-6.4C246.3,277.1,247.4,276.9,248.4,276.9z"/>
	<path class="st0" d="M287.9,276.6h43.8l0.2,0.2v7.4l-0.2,0.2h-17V312l-0.2,0.2h-9.7l-0.2-0.2v-27.5h-16.8l-0.2-0.2v-7.4
		L287.9,276.6z"/>
	<path class="st0" d="M333.9,276.6h36.9c3.3,0,5.5,1.7,6.6,5.3c0.2,0.6,0.3,1.3,0.3,2v6.9c0,2.5-1.1,4.7-3.1,6.1
		c-1.1,0.6-2.4,1.1-3.8,1.1h-5.3l13.5,13.8l0,0h-13.5l-20.9-20.7v-0.2h22.9v-6.6h-23.9l0,0l-0.2,27.5l0,0h-9.9l-0.2-0.2v-34.8
		L333.9,276.6z"/>
	<path class="st0" d="M414.3,276.6c0.2,0.2,2.7,4.7,7.5,13.8l11.8,21.3h-0.2h-11.9c-1.3-1.7-2.2-3.6-3.1-5.5l-0.5-0.5h-11.4h-1.3
		h-0.9h-5.8v-0.2l4.2-7.4h4.9h1.3h1.4h3.8l0,0c-4.2-8-6.6-12.1-6.7-12.6l-14.1,26.1h-11.9l-0.2-0.2l19.3-35l0,0h13.8L414.3,276.6
		L414.3,276.6z"/>
	<path class="st0" d="M441,277.4h31.7c1.9,0.2,3.8,1.3,4.7,3c0.6,1.3,1.1,2.7,1.1,4.1v7.1c0.2,3.8-2.7,7.1-6.4,7.2
		c-0.2,0-0.5,0-0.6,0h-26.4v6.1h33.3l0.2,0.2c-0.2,1.7-0.8,3.3-1.9,4.7c-1.1,1.3-2.7,2-4.4,2l-0.2,0.2h-36.9l-0.2-0.2v-13.5
		c-0.2-3.8,2.7-7.1,6.6-7.2c0.2,0,0.3,0,0.6,0h26.4v-6.3h-33.3l-0.2-0.2v-0.3c0-2.5,1.1-4.7,3.1-6.1
		C439.1,277.7,440,277.4,441,277.4z"/>
	<path class="st0" d="M487.6,277.1h29.5c3.3-0.2,6.3,2.2,6.9,5.3l0.3,1.7v20.7c0,2.5-1.3,5-3.5,6.4c-0.9,0.5-1.9,0.8-2.8,0.8h-30.9
		c-2,0-3.9-1.1-5-2.8c-0.8-1.3-1.3-2.8-1.3-4.4v-20.4c-0.2-3.8,2.7-7.1,6.6-7.2C487.1,277.1,487.4,277.1,487.6,277.1L487.6,277.1z
		 M490.4,284.2v20.2h23.7v-20.2H490.4z"/>
	<path class="st0" d="M531.9,277.4h31.7c1.9,0.2,3.8,1.3,4.7,3c0.6,1.3,1.1,2.7,1.1,4.1v7.1c0.2,3.8-2.7,7.1-6.4,7.2
		c-0.2,0-0.5,0-0.6,0H536v6.1h33.3l0.2,0.2c-0.2,1.7-0.8,3.3-1.9,4.7c-1.1,1.3-2.7,2-4.4,2L563,312h-36.9l-0.2-0.2v-13.5
		c-0.2-3.8,2.7-7.1,6.6-7.2c0.2,0,0.3,0,0.6,0h26.4v-6.3h-33.3l-0.2-0.2v-0.3c0-2.5,1.1-4.7,3.1-6.1
		C530,277.7,530.9,277.4,531.9,277.4z"/>
	<path class="st0" d="M578.5,277.1H608c3.3-0.2,6.3,2.2,6.9,5.3l0.3,1.7v20.7c0,2.5-1.3,5-3.5,6.4c-0.9,0.5-1.9,0.8-2.8,0.8H578
		c-2,0-3.9-1.1-5-2.8c-0.8-1.3-1.3-2.8-1.3-4.4v-20.4c-0.2-3.8,2.7-7.1,6.6-7.2C578.2,277.1,578.3,277.1,578.5,277.1L578.5,277.1z
		 M581.3,284.2v20.2H605v-20.2H581.3z"/>
	<g>
		<path class="st0" d="M208.5,137.1l-62-35.8c-1.4-0.8-3-1.3-4.7-1.3c-5.2,0-9.4,4.2-9.4,9.4v70.3c0,15.1,8.2,29.2,21.2,36.7
			l62,35.8c1.4,0.8,3,1.3,4.7,1.3l0,0c2.5,0,4.9-0.9,6.6-2.7c1.9-1.7,2.8-4.2,2.8-6.7v-70.3C229.7,158.7,221.7,144.6,208.5,137.1z
			 M164,199.9l-0.3-0.2c-6.7-3.9-10.8-11.1-10.8-18.8c0-3.9,3.1-7.2,7.1-7.2c1.3,0,2.5,0.3,3.6,0.9l0.5,0.3
			c6.6,3.8,10.7,11,10.7,18.5c0.2,4.1-3.1,7.4-7.1,7.4C166.5,201,165.2,200.5,164,199.9L164,199.9z M199.7,179.3l-0.3-0.2
			c-6.7-3.9-10.8-11.1-10.8-18.8c0-3.9,3.1-7.2,7.1-7.2c1.3,0,2.5,0.3,3.6,0.9l0.5,0.3c6.6,3.8,10.7,11,10.7,18.5
			c0.2,4.1-3.1,7.4-7.1,7.4C202.1,180.3,200.8,179.9,199.7,179.3L199.7,179.3z"/>
		<path class="st0" d="M319.7,100.7c-1.7,0-3.3,0.5-4.7,1.3l-60.9,35.2c-13,7.5-21.2,21.5-21.2,36.7v71.6c0,5.2,4.2,9.4,9.4,9.4l0,0
			c1.7,0,3.3-0.5,4.7-1.3l60.9-35.2c13-7.5,21.2-21.5,21.2-36.7v-71.6C329.1,104.9,324.8,100.7,319.7,100.7L319.7,100.7z
			 M275.2,201.1c0,7.7-4.1,14.9-10.8,18.8c-3.5,2-7.8,0.8-9.7-2.7c-0.6-1.1-0.9-2.4-0.9-3.6V213c0-7.7,4.1-14.8,10.7-18.5
			c3.5-2,7.8-0.8,9.9,2.7c0.6,1.1,0.9,2.4,0.9,3.6L275.2,201.1z M310.2,139.8c0,7.7-4.1,14.9-10.8,18.8c-3.5,2-7.8,0.8-9.7-2.7
			c-0.6-1.1-0.9-2.4-0.9-3.6v-0.6c0-7.7,4.1-14.8,10.7-18.5c3.5-2,7.8-0.8,9.9,2.7c0.6,1.1,0.9,2.4,0.9,3.6L310.2,139.8z"/>
		<path class="st0" d="M408,137.1l-62-35.8c-1.4-0.8-3-1.3-4.7-1.3c-5.2,0-9.4,4.2-9.4,9.4v70.3c0,15.1,8.2,29,21.2,36.7l62,35.8
			c1.4,0.8,3,1.3,4.7,1.3l0,0c2.5,0,4.9-0.9,6.6-2.7c1.9-1.7,2.8-4.2,2.8-6.7v-70.3C429.2,158.7,421.2,144.6,408,137.1z M374.4,154
			c0,4.1-3.3,7.2-7.2,7.2c-1.3,0-2.5-0.3-3.6-0.9l-0.3-0.2c-6.7-3.9-10.8-11.1-10.8-18.8l0,0c0-3.9,3.1-7.2,7.1-7.2
			c1.3,0,2.5,0.3,3.6,0.9l0.5,0.3C370.4,139.3,374.4,146.3,374.4,154L374.4,154z M399.2,221.2l-0.3-0.2
			c-6.7-3.9-10.8-11.1-10.8-18.8c0-3.9,3.1-7.2,7.1-7.2c1.3,0,2.5,0.3,3.6,0.9l0.5,0.3c6.6,3.8,10.7,11,10.7,18.5
			c0,4.1-3.1,7.4-7.1,7.4C401.8,222.3,400.3,222,399.2,221.2L399.2,221.2z"/>
		<path class="st0" d="M314.5,82.3l-60.9-35.2c-13.2-7.5-29.2-7.5-42.4,0l-62,35.8c-4.6,2.7-6,8.3-3.5,12.9c0.8,1.4,2,2.7,3.5,3.5
			l60.7,35.2c13.2,7.5,29.2,7.5,42.4,0l62-35.8c4.6-2.7,6-8.3,3.5-12.9C317.2,84.3,315.9,83.1,314.5,82.3L314.5,82.3z M206,96.9
			l-0.5,0.3c-6.6,3.8-14.8,3.8-21.5,0c-3.5-2-4.7-6.4-2.7-9.9c0.6-1.1,1.6-2,2.7-2.7l0.3-0.2c6.7-3.9,14.9-3.9,21.7,0
			c3.5,2,4.6,6.4,2.7,9.7C208.1,95.3,207.1,96.3,206,96.9z M276.7,96.4l-0.5,0.3c-6.6,3.8-14.8,3.8-21.5,0c-3.5-2-4.7-6.4-2.7-9.9
			c0.6-1.1,1.6-2,2.7-2.7l0.3-0.2c6.7-3.9,14.9-3.9,21.7,0c3.5,2,4.6,6.4,2.5,9.9C278.5,95,277.8,95.8,276.7,96.4L276.7,96.4z"/>
		<path class="st0" d="M519.2,100.7c-1.7,0-3.3,0.5-4.7,1.3l-60.9,35.2c-13,7.5-21.2,21.5-21.2,36.7v71.6c0,5.2,4.2,9.4,9.4,9.4l0,0
			c1.7,0,3.3-0.5,4.7-1.3l60.9-35.2c13-7.5,21.2-21.5,21.2-36.7v-71.6C528.6,104.9,524.3,100.7,519.2,100.7L519.2,100.7z
			 M474.9,201.1c0,7.7-4.1,14.9-10.8,18.8c-3.5,2-7.8,0.8-9.7-2.7c-0.6-1.1-0.9-2.4-0.9-3.6V213c0-7.7,4.1-14.8,10.7-18.5
			c3.5-2,7.8-0.8,9.9,2.7c0.6,1.1,0.9,2.4,0.9,3.6L474.9,201.1z M509.7,139.8c0,7.7-4.1,14.9-10.8,18.8c-3.5,2-7.8,0.8-9.7-2.7
			c-0.6-1.1-0.9-2.4-0.9-3.6v-0.6c0-7.7,4.1-14.8,10.8-18.5c3.5-2,7.8-0.8,9.9,2.7c0.6,1.1,0.9,2.4,0.9,3.6L509.7,139.8z"/>
		<path class="st0" d="M514.1,82.3l-60.9-35.2c-13.2-7.5-29.2-7.5-42.4,0l-62,35.8c-4.6,2.7-6,8.3-3.5,12.9c0.8,1.4,2,2.7,3.5,3.5
			l60.9,35.2c13.2,7.5,29.2,7.5,42.4,0l62-35.8c4.6-2.7,6-8.3,3.5-12.9C516.7,84.3,515.6,83.1,514.1,82.3L514.1,82.3z M405.5,96.9
			l-0.5,0.3c-6.6,3.8-14.8,3.8-21.5,0c-3.5-2-4.7-6.4-2.7-9.9c0.6-1.1,1.6-2,2.7-2.7l0.3-0.2c6.7-3.9,14.9-3.9,21.7,0
			c3.5,2,4.6,6.4,2.7,9.7C407.6,95.3,406.6,96.3,405.5,96.9z M476.2,96.4l-0.5,0.3c-6.6,3.8-14.8,3.8-21.5,0c-3.5-2-4.7-6.4-2.7-9.9
			c0.6-1.1,1.6-2,2.7-2.7l0.3-0.2c6.7-3.9,14.9-3.9,21.7,0c3.5,2,4.6,6.4,2.5,9.9C478.2,95,477.3,95.8,476.2,96.4L476.2,96.4z"/>
	</g>
</g>
</svg>
